<svg width="10" height="6" viewBox="0 0 10 6" fill="none" xmlns="http://www.w3.org/2000/svg">
<path d="M4.74674 5.72652L0.900183 1.32977C0.446232 0.812461 0.815168 2.94912e-07 1.50411 2.94912e-07H9.19722C9.35141 -0.000131902 9.50237 0.0441823 9.63202 0.127636C9.76167 0.211091 9.86451 0.330147 9.92824 0.470548C9.99196 0.610949 10.0139 0.766743 9.99133 0.919273C9.96879 1.0718 9.90277 1.2146 9.80116 1.33057L5.9546 5.72572C5.87932 5.81187 5.78648 5.88091 5.68232 5.92822C5.57815 5.97552 5.46507 6 5.35067 6C5.23627 6 5.12319 5.97552 5.01902 5.92822C4.91486 5.88091 4.82202 5.81187 4.74674 5.72572V5.72652Z" fill="#CBD5E1"/>
</svg>
