<svg width="253" height="54" viewBox="0 0 253 54" fill="none" xmlns="http://www.w3.org/2000/svg">
<g clip-path="url(#clip0_2310_9297)">
<path d="M25.3006 50.3784H29.1454V50.8755H25.3006V53.9189H24.7832V47.2234H29.2773V47.7306H25.2904L25.3006 50.3784Z" fill="#444444"/>
<path d="M39.4222 47.2031V51.3624C39.4258 51.7547 39.3534 52.144 39.2092 52.5088C39.0779 52.8211 38.8806 53.1014 38.631 53.3305C38.3911 53.5444 38.1121 53.7098 37.8092 53.8174C37.5083 53.9332 37.1883 53.9917 36.8658 53.9899C36.5442 53.992 36.2247 53.9371 35.9223 53.8276C35.6184 53.7224 35.3389 53.5567 35.1006 53.3406C34.8432 53.1144 34.6447 52.8289 34.5224 52.5088C34.3688 52.1464 34.2928 51.7559 34.2992 51.3624V47.2031H34.8064V51.3624C34.8029 51.6818 34.8615 51.9988 34.9789 52.2957C35.0821 52.5541 35.2415 52.7863 35.4455 52.9754C35.734 53.238 36.0899 53.4151 36.4734 53.4868C36.8568 53.5584 37.2526 53.5219 37.6165 53.3812C37.8603 53.2895 38.0842 53.1518 38.2759 52.9754C38.4799 52.7863 38.6393 52.5541 38.7425 52.2957C38.8683 52.0009 38.9305 51.6829 38.9252 51.3624V47.2031H39.4222Z" fill="#444444"/>
<path d="M46.5238 47.6292H44.1094V47.1829H49.4658V47.6292H47.0412V53.8682H46.5238V47.6292Z" fill="#444444"/>
<path d="M59.2657 47.2031V51.3624C59.2754 51.7552 59.2028 52.1457 59.0527 52.5088C58.9214 52.8211 58.7241 53.1014 58.4745 53.3305C57.9835 53.7537 57.3575 53.9875 56.7093 53.9899C56.3877 53.992 56.0682 53.9371 55.7658 53.8276C55.46 53.7199 55.1776 53.5546 54.934 53.3406C54.6826 53.1091 54.4852 52.8251 54.3557 52.5088C54.2115 52.144 54.1392 51.7547 54.1427 51.3624V47.2031H54.6499V51.3624C54.6446 51.6829 54.7068 52.0009 54.8325 52.2957C54.9286 52.5553 55.0851 52.7883 55.2891 52.9754C55.486 53.1447 55.7086 53.2817 55.9484 53.3812C56.1919 53.4723 56.4494 53.5204 56.7093 53.5232C56.966 53.5213 57.2203 53.4732 57.46 53.3812C57.7053 53.2865 57.932 53.1491 58.1295 52.9754C58.3263 52.7822 58.4817 52.551 58.5861 52.2957C58.7069 51.9994 58.7689 51.6824 58.7687 51.3624V47.2031H59.2657Z" fill="#444444"/>
<path d="M70.0787 53.8986H69.399L67.086 51.3624H65.2498V53.8986H64.7832V47.2031H67.7251C68.0057 47.1792 68.2882 47.2139 68.5547 47.3051C68.8211 47.3963 69.0656 47.542 69.2727 47.7328C69.4797 47.9237 69.6448 48.1555 69.7574 48.4136C69.87 48.6717 69.9276 48.9505 69.9265 49.2321C69.9362 49.4997 69.8927 49.7665 69.7987 50.0172C69.7046 50.268 69.5619 50.4976 69.3787 50.6929C69.1625 50.8963 68.9069 51.0534 68.6278 51.1545C68.3487 51.2557 68.0519 51.2989 67.7556 51.2813L70.0787 53.8986ZM65.2498 50.8552H67.6237C67.8537 50.8738 68.0851 50.8447 68.3033 50.7696C68.5216 50.6946 68.7219 50.5752 68.8918 50.419C69.0383 50.2637 69.1516 50.0801 69.2249 49.8795C69.2981 49.679 69.3298 49.4656 69.3179 49.2524C69.3271 49.048 69.2951 48.8438 69.2236 48.652C69.1521 48.4603 69.0427 48.2849 68.9019 48.1365C68.7443 47.9754 68.5543 47.8496 68.3444 47.7674C68.1346 47.6852 67.9097 47.6485 67.6846 47.6597H65.2498V50.8552Z" fill="#444444"/>
<path d="M75.5975 50.2871H79.5133V50.7538H75.5975V53.4015H79.8176V53.8986H75.0801V47.2031H79.7162V47.6901H75.5975V50.2871Z" fill="#444444"/>
<path d="M92.4792 47.6292H90.0547V47.1829H95.4212V47.6292H92.9966V53.8682H92.4792V47.6292Z" fill="#444444"/>
<path d="M100.675 50.2871H104.591V50.7538H100.675V53.4015H104.895V53.8986H100.168V47.2031H104.784V47.6901H100.675V50.2871Z" fill="#444444"/>
<path d="M115.406 52.9653C115.089 53.2922 114.709 53.5508 114.289 53.7253C113.868 53.8998 113.416 53.9864 112.961 53.9798C112.494 54.0008 112.027 53.9211 111.593 53.7461C111.159 53.5711 110.768 53.3048 110.445 52.9653C109.835 52.3112 109.504 51.4452 109.522 50.5509C109.511 49.9687 109.636 49.392 109.887 48.8669C110.143 48.3328 110.553 47.8876 111.064 47.5887C111.636 47.2445 112.294 47.072 112.961 47.0916C113.416 47.085 113.868 47.1716 114.289 47.3461C114.709 47.5206 115.089 47.7792 115.406 48.1061L115.041 48.4104C114.77 48.1348 114.446 47.9172 114.089 47.7707C113.731 47.6242 113.348 47.5519 112.961 47.5582C112.557 47.5364 112.153 47.6021 111.776 47.751C111.4 47.8998 111.06 48.1282 110.78 48.4205C110.272 49.0041 109.992 49.7518 109.992 50.5256C109.992 51.2993 110.272 52.047 110.78 52.6306C111.056 52.9185 111.391 53.143 111.763 53.2884C112.134 53.4338 112.533 53.4966 112.931 53.4726C113.32 53.4793 113.707 53.4073 114.068 53.2608C114.429 53.1144 114.756 52.8966 115.031 52.6204L115.406 52.9653Z" fill="#444444"/>
<path d="M125.206 53.8986V50.8552H120.945V53.8986H120.428V47.2031H120.945V50.3784H125.206V47.2031H125.733V53.8986H125.206Z" fill="#444444"/>
<path d="M141.721 48.4913C141.535 48.1552 141.232 47.8989 140.869 47.7711C140.491 47.6413 140.093 47.5762 139.693 47.5783C139.395 47.5735 139.097 47.6111 138.81 47.6899C138.515 47.7559 138.244 47.9035 138.029 48.116C137.911 48.218 137.816 48.3442 137.752 48.4859C137.687 48.6277 137.653 48.7818 137.653 48.9377C137.653 49.0915 137.696 49.2424 137.775 49.3739C137.844 49.4966 137.937 49.6037 138.049 49.6884C138.19 49.7848 138.343 49.86 138.506 49.9116C138.679 49.9822 138.859 50.0365 139.043 50.0739L139.713 50.2058C140.296 50.2933 140.868 50.4464 141.417 50.6623C141.699 50.7858 141.938 50.9909 142.103 51.2512C142.267 51.5116 142.35 51.8153 142.34 52.1231C142.346 52.452 142.258 52.7757 142.087 53.0564C141.922 53.3078 141.69 53.5081 141.417 53.6347C141.155 53.7608 140.879 53.8561 140.595 53.9187C140.298 53.9752 139.996 54.0058 139.693 54.01C139.133 54.0086 138.582 53.8803 138.08 53.6347C137.586 53.4118 137.184 53.0247 136.943 52.5391L137.4 52.3159C137.613 52.7121 137.952 53.0261 138.364 53.2086C138.776 53.4163 139.231 53.5273 139.693 53.5332C139.924 53.5336 140.155 53.5132 140.382 53.4724C140.613 53.4329 140.838 53.3647 141.052 53.2695C141.279 53.1812 141.476 53.0298 141.62 52.8333C141.759 52.6193 141.83 52.3681 141.823 52.113C141.827 51.9644 141.802 51.8165 141.752 51.6768C141.695 51.5466 141.608 51.4318 141.498 51.342C141.387 51.2537 141.268 51.1756 141.143 51.1087C140.997 51.024 140.84 50.9592 140.677 50.9159C140.474 50.8551 140.301 50.8246 140.18 50.7942L139.622 50.6826L139.003 50.5608L138.445 50.4087C138.262 50.3576 138.085 50.2861 137.917 50.1956C137.78 50.1135 137.651 50.0184 137.532 49.9116C137.399 49.7989 137.295 49.6563 137.227 49.4957C137.169 49.3223 137.138 49.1409 137.136 48.958C137.131 48.6479 137.212 48.3425 137.369 48.0754C137.521 47.828 137.739 47.6277 137.998 47.4972C138.257 47.3601 138.534 47.261 138.82 47.203C139.106 47.1377 139.399 47.1037 139.693 47.1015C140.173 47.091 140.651 47.1701 141.103 47.3349C141.521 47.5321 141.873 47.8455 142.117 48.2377L141.721 48.4913Z" fill="#444444"/>
<path d="M148.985 47.6292H146.57V47.1829H151.917V47.6292H149.492V53.8682H148.985V47.6292Z" fill="#444444"/>
<path d="M162.051 53.8985H161.361L159.058 51.3623H157.222V53.8985H156.715V47.203H159.657C159.953 47.1826 160.25 47.2275 160.527 47.3344C160.804 47.4413 161.054 47.6077 161.26 47.8219C161.452 48.013 161.604 48.2408 161.707 48.4917C161.81 48.7426 161.861 49.0116 161.858 49.2827C161.866 49.551 161.821 49.8183 161.726 50.069C161.63 50.3198 161.485 50.549 161.3 50.7435C161.085 50.9484 160.83 51.1065 160.55 51.2077C160.271 51.309 159.974 51.3513 159.677 51.3319L162.051 53.8985ZM157.222 50.8551H159.596C159.826 50.8737 160.057 50.8446 160.276 50.7695C160.494 50.6945 160.694 50.5751 160.864 50.4189C161.009 50.2622 161.121 50.0785 161.194 49.8782C161.267 49.678 161.3 49.4652 161.29 49.2523C161.298 49.0376 161.26 48.8238 161.18 48.6245C161.1 48.4251 160.979 48.2447 160.826 48.0948C160.672 47.9449 160.488 47.8287 160.287 47.7537C160.086 47.6788 159.871 47.6467 159.657 47.6595H157.222V50.8551Z" fill="#444444"/>
<path d="M172.377 53.8986L171.647 52.2552H167.64L166.909 53.8986H166.361L169.405 47.2031H169.973L173.016 53.8986H172.377ZM171.444 51.7682L169.638 47.7104L167.842 51.7682H171.444Z" fill="#444444"/>
<path d="M178.759 47.6292H176.375V47.1829H181.731V47.6292H179.317V53.8682H178.81L178.759 47.6292Z" fill="#444444"/>
<path d="M186.935 50.2871H190.861V50.7538H186.935V53.4015H191.165V53.8986H186.428V47.2031H191.054V47.6901H186.935V50.2871Z" fill="#444444"/>
<path d="M201.401 48.4305C201.111 48.1498 200.766 47.9322 200.387 47.7914C200.021 47.6513 199.633 47.5791 199.241 47.5783C198.835 47.5543 198.43 47.6201 198.053 47.7709C197.676 47.9217 197.337 48.1538 197.06 48.4508C196.539 49.0285 196.26 49.7835 196.278 50.5609C196.256 51.3326 196.537 52.0825 197.06 52.6507C197.341 52.9399 197.682 53.1649 198.058 53.3102C198.434 53.4555 198.838 53.5178 199.241 53.4927C199.991 53.5078 200.718 53.2315 201.27 52.7217V50.8449H198.936V50.3884H201.736V52.9043C201.412 53.2452 201.022 53.5163 200.589 53.7012C200.157 53.8861 199.691 53.9808 199.22 53.9796C198.556 53.9956 197.901 53.8308 197.323 53.5028C196.817 53.2162 196.407 52.7854 196.147 52.2652C195.89 51.7376 195.762 51.1573 195.771 50.571C195.744 50.1082 195.815 49.6449 195.98 49.2114C196.144 48.7779 196.398 48.3839 196.725 48.0551C197.402 47.4336 198.291 47.0931 199.21 47.1025C200.129 47.1119 201.011 47.4706 201.675 48.1059L201.401 48.4305Z" fill="#444444"/>
<path d="M206.98 53.8986V47.2031H207.488V53.8986H206.98Z" fill="#444444"/>
<path d="M217.289 48.4916C217.104 48.1585 216.805 47.9029 216.447 47.7713C216.065 47.6415 215.664 47.5764 215.26 47.5786C214.962 47.5737 214.665 47.6113 214.378 47.6901C214.082 47.7561 213.812 47.9038 213.596 48.1162C213.48 48.2187 213.387 48.3452 213.324 48.4871C213.261 48.6289 213.229 48.7827 213.231 48.9379C213.227 49.0923 213.269 49.2445 213.353 49.3742C213.419 49.4985 213.513 49.6061 213.627 49.6886C213.766 49.787 213.92 49.8623 214.083 49.9118C214.257 49.9835 214.437 50.0379 214.621 50.0741L215.28 50.206C215.854 50.2987 216.415 50.4552 216.954 50.6727C217.236 50.7961 217.475 51.0013 217.64 51.2616C217.804 51.522 217.887 51.8257 217.877 52.1335C217.885 52.464 217.793 52.7891 217.614 53.0668C217.453 53.3178 217.224 53.5183 216.954 53.6451C216.686 53.7728 216.403 53.8682 216.112 53.9291C215.818 53.9859 215.519 54.0164 215.22 54.0204C214.66 54.019 214.109 53.8907 213.607 53.6451C213.113 53.4246 212.714 53.0364 212.48 52.5494L212.937 52.3263C213.143 52.7242 213.48 53.0393 213.891 53.219C214.303 53.4266 214.758 53.5377 215.22 53.5436C215.451 53.544 215.682 53.5236 215.909 53.4828C216.143 53.4434 216.372 53.3752 216.589 53.2799C216.813 53.1909 217.007 53.0395 217.147 52.8436C217.252 52.6721 217.318 52.4797 217.341 52.28C217.364 52.0802 217.343 51.8779 217.279 51.6871C217.225 51.5524 217.134 51.4361 217.015 51.3524C216.911 51.2645 216.799 51.1864 216.68 51.119C216.533 51.0362 216.376 50.9714 216.214 50.9263L215.706 50.8046L215.159 50.693L214.54 50.5712C214.388 50.5712 214.205 50.4901 213.982 50.4191C213.799 50.368 213.622 50.2965 213.454 50.206C213.315 50.1215 213.183 50.0265 213.059 49.922C212.929 49.8089 212.828 49.6663 212.765 49.506C212.701 49.334 212.67 49.1517 212.673 48.9684C212.665 48.6593 212.742 48.3539 212.896 48.0858C213.052 47.838 213.273 47.6379 213.536 47.5076C213.79 47.3693 214.063 47.2701 214.347 47.2133C214.634 47.149 214.926 47.115 215.22 47.1119C215.703 47.1006 216.185 47.1797 216.64 47.3452C217.057 47.5439 217.409 47.857 217.654 48.2481L217.289 48.4916Z" fill="#444444"/>
<path d="M224.602 47.6292H222.178V47.1829H227.534V47.6292H225.069V53.8682H224.562L224.602 47.6292Z" fill="#444444"/>
<path d="M9.28236 22.9167V23.9718L8.08529 25.2094H0V24.479H7.80124L9.28236 22.9167Z" fill="url(#paint0_linear_2310_9297)"/>
<path d="M252.297 7.1114V7.83167H84.3216L84.21 7.79109L72.6349 0.760849H42.4343L34.1968 7.83167H24.7319L19.4059 13.3808H18.4219L24.4478 7.1114H33.9432L42.1401 0H72.8175L84.494 7.1114H252.297Z" fill="url(#paint1_linear_2310_9297)"/>
<path d="M0.0195312 0.0200195L37.078 0.375082L0.0195312 0.74029V0.0200195Z" fill="url(#paint2_linear_2310_9297)"/>
<path d="M134.943 41.5729H20.8262L20.7248 41.4714L14.7597 36.1049H0.0195312V35.3745H15.0438L15.1452 35.4658L21.1001 40.8425H134.812L148.791 35.3745H252.307V36.1049H148.852L134.943 41.5729Z" fill="url(#paint3_linear_2310_9297)"/>
<path d="M54.4759 15.8154V16.7893L50.1948 12.9851H34.0547V12.2546H50.4485L50.56 12.3257L54.4759 15.8154Z" fill="url(#paint4_linear_2310_9297)"/>
<path d="M153.043 23.9009H137.734V24.6313H153.043V23.9009Z" fill="url(#paint5_linear_2310_9297)"/>
<path d="M221.762 5.5491L211.496 0.740534H109.532L101.68 5.52881L101.305 4.90999L109.319 0.0202637L211.729 0.0506976L222.067 4.8897L221.762 5.5491Z" fill="url(#paint6_linear_2310_9297)"/>
<path d="M242.772 41.5727L179.591 41.2379H179.571L179.561 41.2278L175.219 35.7395L179.611 41.177L179.591 41.1669L242.772 40.8423V41.5727Z" fill="url(#paint7_linear_2310_9297)"/>
<path d="M97.6618 34.6338L95.8864 36.1149H38.9141V35.3642H95.6328L96.5053 34.6338H97.6618Z" fill="url(#paint8_linear_2310_9297)"/>
<path d="M14.3032 40.8423H0.0195312V41.5727H14.3032V40.8423Z" fill="url(#paint9_linear_2310_9297)"/>
<path d="M142.685 29.3689V32.8079H132.287V15.562H135.797V29.3689H142.685Z" fill="#1AB9EF"/>
<path d="M7.04102 18.9705H11.2916V32.7774H14.7611V18.9705H19.0016V15.5315H7.04102V18.9705Z" fill="#444444"/>
<path d="M30.6163 22.4299H24.4179V15.5315H20.9688V32.7774H24.4179V25.8689H30.6163V32.7774H34.0655V15.5315H30.6163V22.4299Z" fill="#444444"/>
<path d="M47.4865 18.9502V15.5315H37.0781V18.9502V22.3284V32.7673H47.4865V29.3282H40.5375V25.7573H46.4822V22.3284H40.5375V18.9502H47.4865Z" fill="#444444"/>
<path d="M70.4641 24.1747C70.4641 29.5311 67.0656 32.7774 61.4861 32.7774H56.4746V15.5315H61.4861C67.0656 15.5315 70.4641 18.7981 70.4641 24.1747ZM66.9642 24.1747C66.9642 20.9487 64.9352 18.9807 61.4759 18.9807H59.9238V29.3688H61.5064C64.8947 29.3688 66.9642 27.3399 66.9642 24.1646V24.1747Z" fill="#1AB9EF"/>
<path d="M72.7363 15.5315H76.1957V32.7774H72.7363V15.5315Z" fill="#1AB9EF"/>
<path d="M95.7547 24.5501C95.7547 29.9673 92.0215 33.1223 87.5274 33.1223C85.1463 33.1384 82.8562 32.208 81.1611 30.5357C79.466 28.8634 78.5046 26.5863 78.4885 24.2052C78.4723 21.824 79.4028 19.534 81.0751 17.8389C82.7473 16.1438 85.0245 15.1824 87.4056 15.1663C89.7673 15.2455 92.0142 16.2043 93.7055 17.8546L91.7881 20.7357C90.6325 19.5115 89.0467 18.7841 87.3651 18.7067C86.647 18.7274 85.94 18.8893 85.2845 19.1831C84.629 19.477 84.0378 19.8971 83.5447 20.4195C83.0515 20.9418 82.6661 21.5562 82.4104 22.2275C82.1547 22.8988 82.0337 23.6139 82.0543 24.332C82.075 25.05 82.2368 25.757 82.5307 26.4125C82.8246 27.068 83.2447 27.6592 83.767 28.1523C84.2894 28.6455 84.9038 29.0309 85.5751 29.2866C86.2464 29.5423 86.9615 29.6633 87.6795 29.6427C90.1447 29.6427 91.8997 28.3746 92.0215 26.3051H87.5578V23.1095H95.6735C95.7243 23.6066 95.7547 24.0834 95.7547 24.5501Z" fill="#1AB9EF"/>
<path d="M98.0273 15.5315H101.487V32.7774H98.0273V15.5315Z" fill="#1AB9EF"/>
<path d="M115.406 18.9705H111.165V32.7774H107.696V18.9705H103.445V15.5315H115.406V18.9705Z" fill="#1AB9EF"/>
<path d="M122.294 15.3184H122.193L113.955 32.9903H117.698L120.143 27.6238L122.253 23.0182L125.692 30.5759L126.788 32.9903H130.542L122.294 15.3184Z" fill="#1AB9EF"/>
<path d="M227.584 25.7572H233.519V22.3283H224.125V32.7671H234.523V29.3687H227.584V25.7572ZM224.125 15.5415V18.9501H234.523V15.5415H224.125Z" fill="#444444"/>
<path d="M227.575 18.9502H224.115V22.3284H227.575V18.9502Z" fill="#444444"/>
<path d="M182.989 25.7572H188.933V22.3283H179.529V32.7671H189.928V29.3687H182.989V25.7572ZM179.529 15.5415V18.9501H189.928V15.5415H179.529Z" fill="#444444"/>
<path d="M182.979 18.9502H179.52V22.3284H182.979V18.9502Z" fill="#444444"/>
<path d="M151.014 29.8151L153.793 27.8673C154.135 28.442 154.628 28.9115 155.218 29.2247C155.809 29.5378 156.474 29.6824 157.141 29.6427C158.764 29.6427 159.85 28.9833 159.85 28.0601C159.85 26.8022 157.821 25.808 155.985 24.9051C154.148 24.0022 151.927 22.8762 151.927 20.1371C151.927 17.1546 154.453 15.1865 157.618 15.1865C159.971 15.1865 161.919 16.1503 162.69 18.2299L160.144 20.0255C159.911 19.5749 159.554 19.2001 159.116 18.945C158.677 18.6898 158.175 18.565 157.669 18.585C156.38 18.585 155.416 19.3357 155.416 20.2183C155.416 21.2327 156.715 21.5979 158.703 22.5312C161.554 23.8805 163.35 25.3312 163.35 27.9891C163.35 31.1238 160.783 33.1324 157.1 33.1324C155.876 33.2148 154.653 32.9465 153.575 32.359C152.497 31.7715 151.608 30.8891 151.014 29.8151V29.8151Z" fill="#444444"/>
<path d="M165.449 15.5417H171.536C172.32 15.5089 173.103 15.6352 173.838 15.9128C174.572 16.1904 175.243 16.6136 175.81 17.1571C176.376 17.7006 176.827 18.3531 177.135 19.0753C177.443 19.7975 177.602 20.5745 177.602 21.3597C177.602 22.1448 177.443 22.9219 177.135 23.6441C176.827 24.3663 176.376 25.0187 175.81 25.5622C175.243 26.1057 174.572 26.5289 173.838 26.8066C173.103 27.0842 172.32 27.2104 171.536 27.1776H168.949V32.7775H165.49L165.449 15.5417ZM174.103 21.3343C174.071 20.674 173.779 20.0532 173.29 19.6081C172.801 19.1631 172.156 18.9301 171.495 18.9605H168.909V23.7386H171.495C171.825 23.7522 172.153 23.7007 172.462 23.5872C172.772 23.4737 173.055 23.3003 173.298 23.077C173.54 22.8537 173.735 22.5849 173.874 22.2858C174.012 21.9868 174.09 21.6634 174.103 21.3343V21.3343Z" fill="#444444"/>
<path d="M218.243 32.7774L213.008 25.2298V32.7774H209.549V15.5315H213.008V22.9777L217.857 15.5315H221.854L216.325 23.9617L222.463 32.7673L218.243 32.7774Z" fill="#444444"/>
<path d="M246.048 32.7773L240.559 24.6615V32.7773H237.09V15.5313H242.72C243.472 15.5125 244.219 15.6418 244.921 15.9121C245.622 16.1823 246.263 16.588 246.808 17.1062C247.353 17.6244 247.79 18.2447 248.094 18.9319C248.399 19.619 248.565 20.3595 248.584 21.1109C248.601 22.1458 248.301 23.1612 247.724 24.0208C247.148 24.8803 246.322 25.5429 245.358 25.9195L250.258 32.7773H246.048ZM240.549 23.2819H242.771C243.069 23.3022 243.368 23.2611 243.65 23.161C243.932 23.0608 244.19 22.9039 244.408 22.6998C244.627 22.4957 244.801 22.2489 244.92 21.9747C245.039 21.7005 245.101 21.4048 245.101 21.1058C245.101 20.8069 245.039 20.5111 244.92 20.2369C244.801 19.9627 244.627 19.7159 244.408 19.5119C244.19 19.3078 243.932 19.1508 243.65 19.0507C243.368 18.9506 243.069 18.9094 242.771 18.9298H240.549V23.2819Z" fill="#444444"/>
<path d="M199.556 15.3184H199.444L191.217 32.9903H194.96L197.405 27.6238L199.515 23.0182L202.954 30.5861L204.05 32.9903H207.803L199.556 15.3184Z" fill="#444444"/>
</g>
<defs>
<linearGradient id="paint0_linear_2310_9297" x1="0" y1="24.0631" x2="9.28236" y2="24.0631" gradientUnits="userSpaceOnUse">
<stop stop-color="#1AB9EF"/>
<stop offset="1" stop-color="white"/>
</linearGradient>
<linearGradient id="paint1_linear_2310_9297" x1="4265.59" y1="88.3133" x2="58183.1" y2="88.3133" gradientUnits="userSpaceOnUse">
<stop stop-color="#1AB9EF"/>
<stop offset="1" stop-color="white"/>
</linearGradient>
<linearGradient id="paint2_linear_2310_9297" x1="0.7607" y1="0.293722" x2="1354.5" y2="0.293722" gradientUnits="userSpaceOnUse">
<stop stop-color="#1AB9EF"/>
<stop offset="1" stop-color="white"/>
</linearGradient>
<linearGradient id="paint3_linear_2310_9297" x1="5.06528" y1="270.417" x2="62746.4" y2="270.417" gradientUnits="userSpaceOnUse">
<stop stop-color="#1AB9EF"/>
<stop offset="1" stop-color="white"/>
</linearGradient>
<linearGradient id="paint4_linear_2310_9297" x1="719.594" y1="77.191" x2="1130.67" y2="77.191" gradientUnits="userSpaceOnUse">
<stop stop-color="#1AB9EF"/>
<stop offset="1" stop-color="white"/>
</linearGradient>
<linearGradient id="paint5_linear_2310_9297" x1="2216.14" y1="41.3725" x2="2447.14" y2="41.3725" gradientUnits="userSpaceOnUse">
<stop stop-color="#1AB9EF"/>
<stop offset="1" stop-color="white"/>
</linearGradient>
<linearGradient id="paint6_linear_2310_9297" x1="12160.6" y1="15.1693" x2="26536.1" y2="15.1693" gradientUnits="userSpaceOnUse">
<stop stop-color="#1AB9EF"/>
<stop offset="1" stop-color="white"/>
</linearGradient>
<linearGradient id="paint7_linear_2310_9297" x1="11843" y1="257.983" x2="16340.7" y2="257.983" gradientUnits="userSpaceOnUse">
<stop stop-color="#1AB9EF"/>
<stop offset="1" stop-color="white"/>
</linearGradient>
<linearGradient id="paint8_linear_2310_9297" x1="2292.48" y1="86.2803" x2="5694.55" y2="86.2803" gradientUnits="userSpaceOnUse">
<stop stop-color="#1AB9EF"/>
<stop offset="1" stop-color="white"/>
</linearGradient>
<linearGradient id="paint9_linear_2310_9297" x1="0.305205" y1="70.5118" x2="201.277" y2="70.5118" gradientUnits="userSpaceOnUse">
<stop stop-color="#1AB9EF"/>
<stop offset="1" stop-color="white"/>
</linearGradient>
<clipPath id="clip0_2310_9297">
<rect width="252.308" height="54" fill="white"/>
</clipPath>
</defs>
</svg>
